<svg xmlns="http://www.w3.org/2000/svg" xmlns:xlink="http://www.w3.org/1999/xlink" version="1.1" width="256" height="256" viewBox="0 0 256 256" xml:space="preserve">
<g style="stroke: none; stroke-width: 0; stroke-dasharray: none; stroke-linecap: butt; stroke-linejoin: miter; stroke-miterlimit: 10; fill: none; fill-rule: nonzero; opacity: 1;" transform="translate(1.4065934065934016 1.4065934065934016) scale(2.81 2.81)">
	<circle cx="45" cy="45" r="45" style="stroke: none; stroke-width: 1; stroke-dasharray: none; stroke-linecap: butt; stroke-linejoin: miter; stroke-miterlimit: 10; fill: rgb(32,143,232); fill-rule: nonzero; opacity: 1;" transform="  matrix(1 0 0 1 0 0) "/>
	<path d="M 64.992 43 h -8.164 v -4.131 c 0 -1.104 -0.896 -2 -2 -2 s -2 0.896 -2 2 V 43 h -27.82 c -1.104 0 -2 0.896 -2 2 s 0.896 2 2 2 h 27.82 v 4.131 c 0 1.104 0.896 2 2 2 s 2 -0.896 2 -2 V 47 h 8.164 c 1.104 0 2 -0.896 2 -2 S 66.097 43 64.992 43 z" style="stroke: none; stroke-width: 1; stroke-dasharray: none; stroke-linecap: butt; stroke-linejoin: miter; stroke-miterlimit: 10; fill: rgb(255,255,255); fill-rule: nonzero; opacity: 1;" transform=" matrix(1 0 0 1 0 0) " stroke-linecap="round"/>
	<path d="M 25.008 29.131 h 8.164 v 4.131 c 0 1.104 0.896 2 2 2 s 2 -0.896 2 -2 v -4.131 h 27.82 c 1.104 0 2 -0.896 2 -2 s -0.896 -2 -2 -2 h -27.82 V 21 c 0 -1.104 -0.896 -2 -2 -2 s -2 0.896 -2 2 v 4.131 h -8.164 c -1.104 0 -2 0.896 -2 2 S 23.904 29.131 25.008 29.131 z" style="stroke: none; stroke-width: 1; stroke-dasharray: none; stroke-linecap: butt; stroke-linejoin: miter; stroke-miterlimit: 10; fill: rgb(255,255,255); fill-rule: nonzero; opacity: 1;" transform=" matrix(1 0 0 1 0 0) " stroke-linecap="round"/>
	<path d="M 64.992 60.869 h -27.82 v -4.131 c 0 -1.104 -0.896 -2 -2 -2 s -2 0.896 -2 2 v 4.131 h -8.164 c -1.104 0 -2 0.896 -2 2 s 0.896 2 2 2 h 8.164 V 69 c 0 1.104 0.896 2 2 2 s 2 -0.896 2 -2 v -4.131 h 27.82 c 1.104 0 2 -0.896 2 -2 S 66.097 60.869 64.992 60.869 z" style="stroke: none; stroke-width: 1; stroke-dasharray: none; stroke-linecap: butt; stroke-linejoin: miter; stroke-miterlimit: 10; fill: rgb(255,255,255); fill-rule: nonzero; opacity: 1;" transform=" matrix(1 0 0 1 0 0) " stroke-linecap="round"/>
</g>
</svg>