<svg xmlns="http://www.w3.org/2000/svg" xmlns:xlink="http://www.w3.org/1999/xlink" version="1.1" width="256" height="256" viewBox="0 0 256 256" xml:space="preserve">
<g style="stroke: none; stroke-width: 0; stroke-dasharray: none; stroke-linecap: butt; stroke-linejoin: miter; stroke-miterlimit: 10; fill: none; fill-rule: nonzero; opacity: 1;" transform="translate(1.4065934065934016 1.4065934065934016) scale(2.81 2.81)">
	<circle cx="45" cy="45" r="45" style="stroke: none; stroke-width: 1; stroke-dasharray: none; stroke-linecap: butt; stroke-linejoin: miter; stroke-miterlimit: 10; fill: rgb(255,255,255); fill-rule: nonzero; opacity: 1;" transform="  matrix(1 0 0 1 0 0) "/>
	<path d="M 74 45.658 c 0 -2.433 -0.197 -4.209 -0.625 -6.05 H 45.592 v 10.982 H 61.9 c -0.329 2.729 -2.104 6.839 -6.05 9.601 l -0.055 0.368 l 8.785 6.805 l 0.609 0.061 C 70.778 62.262 74 54.667 74 45.658" style="stroke: none; stroke-width: 1; stroke-dasharray: none; stroke-linecap: butt; stroke-linejoin: miter; stroke-miterlimit: 10; fill: rgb(66,133,244); fill-rule: nonzero; opacity: 1;" transform=" matrix(1 0 0 1 0 0) " stroke-linecap="round"/>
	<path d="M 45.592 74.592 c 7.99 0 14.697 -2.631 19.596 -7.168 L 55.85 60.19 c -2.499 1.743 -5.853 2.959 -10.258 2.959 c -7.825 0 -14.467 -5.162 -16.835 -12.297 l -0.347 0.029 l -9.134 7.069 l -0.119 0.332 C 24.023 67.95 34.018 74.592 45.592 74.592" style="stroke: none; stroke-width: 1; stroke-dasharray: none; stroke-linecap: butt; stroke-linejoin: miter; stroke-miterlimit: 10; fill: rgb(52,168,83); fill-rule: nonzero; opacity: 1;" transform=" matrix(1 0 0 1 0 0) " stroke-linecap="round"/>
	<path d="M 28.757 50.853 c -0.625 -1.841 -0.986 -3.814 -0.986 -5.853 c 0 -2.039 0.362 -4.011 0.953 -5.853 l -0.017 -0.392 l -9.249 -7.183 l -0.303 0.144 C 17.151 35.728 16 40.232 16 45 s 1.151 9.272 3.156 13.283 L 28.757 50.853" style="stroke: none; stroke-width: 1; stroke-dasharray: none; stroke-linecap: butt; stroke-linejoin: miter; stroke-miterlimit: 10; fill: rgb(251,188,5); fill-rule: nonzero; opacity: 1;" transform=" matrix(1 0 0 1 0 0) " stroke-linecap="round"/>
	<path d="M 45.592 26.85 c 5.557 0 9.305 2.4 11.442 4.406 l 8.351 -8.154 c -5.129 -4.768 -11.804 -7.694 -19.794 -7.694 c -11.574 0 -21.569 6.642 -26.435 16.308 l 9.568 7.431 C 31.125 32.012 37.766 26.85 45.592 26.85" style="stroke: none; stroke-width: 1; stroke-dasharray: none; stroke-linecap: butt; stroke-linejoin: miter; stroke-miterlimit: 10; fill: rgb(235,67,53); fill-rule: nonzero; opacity: 1;" transform=" matrix(1 0 0 1 0 0) " stroke-linecap="round"/>
</g>
</svg>